<?xml version="1.0" ?><!DOCTYPE svg  PUBLIC '-//W3C//DTD SVG 1.1//EN'  'http://www.w3.org/Graphics/SVG/1.1/DTD/svg11.dtd' [
	<!ENTITY fill_color "#FFFFFF">
]><svg enable-background="new 0 0 55 55" height="55px" version="1.1" viewBox="0 0 55 55" width="55px" x="0px" xml:space="preserve" xmlns="http://www.w3.org/2000/svg" xmlns:xlink="http://www.w3.org/1999/xlink" y="0px"><g display="block" id="stock-xo_1_">
	<defs>
		<mask id="Mask" maskUnits="userSpaceOnUse" x="0" y="0" width="55" height="55">
			<path d="M3 3 L 53 3 L 53 53 L 3 53 z" stroke-width="3.5" fill="white" stroke="white"/>
			<line x1="15" y1="8" x2="15" y2="49" stroke-width="2" stroke="black" />
			<path d="M15 12 l-3 0 l3 -6 l3 6 z" fill="black" stroke="black" stroke-width="2"/>
			<rect x="23" y="10" width="27" height="10" fill="black" stroke="black" stroke-width="2" />
			<rect x="30.25" y="20" width="12.5" height="6" fill="black" stroke="black" stroke-width="2" />
			<rect x="32.5" y="25" width="8" height="3" fill="black" stroke="black" stroke-width="2" />
			<path d="M32.5 28 L36.5 32 L40.5 28" fill="black" stroke="black" stroke-width="2" />    			

		</mask>
	</defs>
	<path d="M 3 12 Q 3 3 12 3 L 43 3 Q 53 3 53 12 L 53 43 Q 53 53 43 53 L 12 53 Q 3 53 3 43 z" fill="&fill_color;" stroke="&fill_color;" stroke-width="3.5" mask="url(#Mask)"/>
</g></svg>